<?xml version="1.0" encoding="UTF-8"?>
<svg width="600" height="400" viewBox="0 0 600 400" fill="none" xmlns="http://www.w3.org/2000/svg">
    <!-- Fundo com gradiente -->
    <defs>
        <linearGradient id="grad1" x1="0%" y1="0%" x2="100%" y2="100%">
            <stop offset="0%" style="stop-color:#0033a0;stop-opacity:0.1" />
            <stop offset="100%" style="stop-color:#00a3e0;stop-opacity:0.2" />
        </linearGradient>
    </defs>
    <rect width="600" height="400" fill="url(#grad1)" />
    
    <!-- Gráfico de linha estilizado -->
    <path d="M50,300 Q150,100 250,250 T450,150" 
          stroke="#0033a0" 
          stroke-width="3" 
          fill="none" />
          
    <!-- Círculos decorativos representando pontos de dados -->
    <circle cx="150" cy="200" r="8" fill="#00a3e0" />
    <circle cx="300" cy="180" r="8" fill="#0033a0" />
    <circle cx="450" cy="150" r="8" fill="#00a3e0" />
    
    <!-- Ícone de cérebro estilizado representando IA -->
    <path d="M280,100 C360,100 420,160 420,240 C420,320 360,380 280,380 C200,380 140,320 140,240 C140,160 200,100 280,100"
          stroke="#0033a0"
          stroke-width="2"
          fill="none" />
    
    <!-- Linhas de conexão representando redes neurais -->
    <line x1="200" y1="200" x2="360" y2="280" stroke="#00a3e0" stroke-width="1" />
    <line x1="360" y1="200" x2="200" y2="280" stroke="#00a3e0" stroke-width="1" />
    <line x1="280" y1="160" x2="280" y2="320" stroke="#00a3e0" stroke-width="1" />
</svg> 